<svg width="106" height="64" viewBox="0 0 106 64" fill="none" xmlns="http://www.w3.org/2000/svg">
<path d="M96.546 63.3257L97.1123 63.4387L98.046 61.8402C98.046 61.8402 98.5136 53.459 97.1123 50.0687C96.8104 49.3353 96.5256 48.2635 96.1782 46.9379C96.3661 46.7235 96.5484 46.4471 96.7307 46.1255C100.04 40.2249 103.253 32.9197 104.392 25.8062C105.525 18.6927 105.15 9.04643 103.543 4.46019C102.507 1.49296 100.034 0.0657574 96.2636 0.52833C90.8751 1.1827 85.4866 3.89608 80.5708 7.45563C77.4778 9.69515 72.2488 14.5747 71.3033 15.5112C71.1153 15.6973 70.9273 15.8948 70.7678 16.0978C64.7186 14.0332 58.7319 13.9824 52.8877 13.9824C47.0435 13.9824 40.7094 14.0332 34.4779 16.2783C34.2899 16.0132 34.045 15.7537 33.8001 15.5112C32.8545 14.5747 27.6255 9.69515 24.5325 7.45563C19.6111 3.89044 14.2168 1.17706 8.82832 0.522688C5.0575 0.0657574 2.59108 1.48732 1.54869 4.45455C-0.057611 9.04079 -0.433554 18.6871 0.699971 25.8062C1.8335 32.9197 5.0518 40.2249 8.36124 46.1255C8.72009 46.7686 9.09034 47.2425 9.47768 47.344C9.17578 48.4835 8.92515 49.4087 8.65174 50.0687C7.2505 53.4646 9.47768 58.2427 9.47768 58.2427C12.8839 54.8693 21.861 53.6508 25.8483 55.3939C29.9153 57.1709 31.1457 58.9534 34.5463 60.4483C37.9525 61.9489 41.262 61.2437 43.1474 59.5119C45.6992 57.1709 45.8872 54.0795 44.7537 52.5846C43.6202 51.0841 41.5411 47.9984 39.65 45.9337C37.7589 43.8747 37.9468 41.7198 39.0804 40.2249C41.1708 37.4608 43.8081 38.5382 45.8872 39.6608C47.9663 40.7834 50.0397 43.7788 52.8763 43.7788C55.713 43.7788 57.7807 40.7834 59.8655 39.6608C61.9445 38.5382 64.5818 37.4608 66.6723 40.2249C67.8058 41.7255 67.9995 43.8747 66.1084 45.9337C64.2173 47.9927 62.1382 51.0841 61.0047 52.5846C59.8712 54.0852 60.0591 57.1709 62.611 59.5119C64.4964 61.2437 67.8115 61.9489 71.2121 60.4483C74.6184 58.9478 75.8431 57.1709 79.9101 55.3939C83.903 53.6451 88.4201 53.521 91.8206 56.8944C95.2269 60.2622 97.1156 59.5857 96.546 63.3257Z" fill="#95C8FF"/>
</svg>
