<svg width="139" height="80" viewBox="0 0 139 80" fill="none" xmlns="http://www.w3.org/2000/svg">
<path d="M44.5062 0.53338C38.9923 0.306442 31.5585 2.32434 25.6643 7.07162C20.5061 11.2178 15.6668 17.3267 11.4347 19.8905C7.20267 22.4543 2.03832 26.2816 0.535625 30.532C-1.00387 34.8929 1.30231 40.5295 4.38129 44.504C7.46028 48.4785 10.7907 51.5513 12.2014 55.1455C13.3422 58.0466 13.8697 62.9656 13.6121 68.4796C13.3545 73.9936 13.9617 78.2011 16.6911 79.6302C19.3837 81.0409 24.64 78.3483 27.8417 72.7056C31.0434 67.0628 34.5087 52.7105 33.8647 44.504C33.2269 36.2975 34.3738 20.2769 39.2499 13.3523C44.1198 6.42761 46.1745 4.25024 47.1988 3.35476C48.2231 2.45928 47.5852 0.662182 44.5062 0.53338Z" fill="#95C8FF"/>
<path d="M94.4999 0.53338C100.014 0.306442 107.448 2.32434 113.342 7.07162C118.5 11.2178 123.339 17.3267 127.571 19.8905C131.803 22.4543 136.968 26.2816 138.464 30.532C140.004 34.8929 137.698 40.5295 134.619 44.504C131.54 48.4785 128.209 51.5513 126.799 55.1455C125.658 58.0466 125.13 62.9656 125.388 68.4796C125.646 73.9936 125.044 78.2011 122.315 79.6302C119.622 81.0409 114.366 78.3483 111.164 72.7056C107.957 67.0628 104.497 52.7105 105.141 44.504C105.785 36.2975 104.632 20.2769 99.7563 13.3523C94.8863 6.42761 92.8316 4.25024 91.8073 3.35476C90.783 2.45928 91.4209 0.662182 94.4999 0.53338Z" fill="#95C8FF"/>
</svg>
