<svg width="37" height="37" viewBox="0 0 37 37" fill="none" xmlns="http://www.w3.org/2000/svg">
<rect x="0.299683" y="0.568726" width="36" height="36" rx="18" fill="#95C8FF"/>
<path d="M10.6768 8.87862C10.4379 9.12245 10.2997 9.50206 10.2997 9.99368V27.5295C10.2997 28.0211 10.4379 28.4007 10.6768 28.6445L10.7358 28.6981L20.8142 18.8756V18.6436L10.7358 8.82113L10.6768 8.87862Z" fill="white"/>
<path d="M25.3898 22.1514L22.0341 18.8756V18.6436L25.3939 15.3678L25.4691 15.4104L29.448 17.6178C30.5836 18.2442 30.5836 19.275 29.448 19.9054L25.4691 22.1087L25.3898 22.1514V22.1514Z" fill="white"/>
<path d="M24.8592 22.7187L21.4242 19.3695L11.2868 29.2545C11.6639 29.641 12.279 29.6876 12.9784 29.3011L24.8592 22.7187" fill="white"/>
<path d="M24.8592 14.8005L12.9784 8.21811C12.279 7.83551 11.6639 7.8821 11.2868 8.26865L21.4242 18.1496L24.8592 14.8005Z" fill="white"/>
</svg>
