<svg width="169" height="46" viewBox="0 0 169 46" fill="none" xmlns="http://www.w3.org/2000/svg">
<path d="M77.2454 34.6573V36.5473H76.5754V35.2773H71.8654V36.5473H71.1954V34.6573H71.4954C71.8488 34.6373 72.0888 34.3773 72.2154 33.8773C72.3421 33.3773 72.4288 32.6773 72.4754 31.7773L72.5454 30.0173H76.4254V34.6573H77.2454ZM73.1254 31.8173C73.0921 32.564 73.0288 33.1807 72.9354 33.6673C72.8421 34.1473 72.6754 34.4773 72.4354 34.6573H75.7154V30.6473H73.1854L73.1254 31.8173Z" fill="#1C1C1C"/>
<path d="M82.9291 30.0173V35.2773H82.2191V30.6473H79.6991L79.6291 31.9473C79.5758 33.0407 79.4491 33.8807 79.2491 34.4673C79.0491 35.054 78.6924 35.3473 78.1791 35.3473C78.0391 35.3473 77.8691 35.3207 77.6691 35.2673L77.7191 34.6573C77.8391 34.684 77.9224 34.6973 77.9691 34.6973C78.2424 34.6973 78.4491 34.5707 78.5891 34.3173C78.7291 34.064 78.8224 33.7507 78.8691 33.3773C78.9158 33.004 78.9558 32.5107 78.9891 31.8973L79.0791 30.0173H82.9291Z" fill="#1C1C1C"/>
<path d="M88.9875 30.0173V35.2773H88.3375V33.5373H86.4875L85.2675 35.2773H84.4975L85.8075 33.4373C85.4008 33.324 85.0875 33.1307 84.8675 32.8573C84.6475 32.584 84.5375 32.2373 84.5375 31.8173C84.5375 31.2307 84.7375 30.784 85.1375 30.4773C85.5375 30.1707 86.0841 30.0173 86.7775 30.0173H88.9875ZM85.2575 31.8373C85.2575 32.6173 85.7541 33.0073 86.7475 33.0073H88.3375V30.6473H86.7975C85.7708 30.6473 85.2575 31.044 85.2575 31.8373Z" fill="#1C1C1C"/>
<path d="M98.3491 30.0173V35.2773H97.6391V30.6473H94.3391V35.2773H93.6291V30.0173H98.3491Z" fill="#1C1C1C"/>
<path d="M102.567 35.3273C102.047 35.3273 101.581 35.214 101.167 34.9873C100.761 34.7607 100.441 34.444 100.207 34.0373C99.9741 33.624 99.8574 33.1607 99.8574 32.6473C99.8574 32.134 99.9741 31.674 100.207 31.2673C100.441 30.8607 100.761 30.544 101.167 30.3173C101.581 30.0907 102.047 29.9773 102.567 29.9773C103.021 29.9773 103.424 30.0673 103.777 30.2473C104.137 30.4207 104.421 30.6773 104.627 31.0173L104.097 31.3773C103.924 31.1173 103.704 30.924 103.437 30.7973C103.171 30.664 102.881 30.5973 102.567 30.5973C102.187 30.5973 101.844 30.684 101.537 30.8573C101.237 31.024 101.001 31.264 100.827 31.5773C100.661 31.8907 100.577 32.2473 100.577 32.6473C100.577 33.054 100.661 33.414 100.827 33.7273C101.001 34.034 101.237 34.274 101.537 34.4473C101.844 34.614 102.187 34.6973 102.567 34.6973C102.881 34.6973 103.171 34.634 103.437 34.5073C103.704 34.3807 103.924 34.1873 104.097 33.9273L104.627 34.2873C104.421 34.6273 104.137 34.8873 103.777 35.0673C103.417 35.2407 103.014 35.3273 102.567 35.3273Z" fill="#1C1C1C"/>
<path d="M107.812 29.9773C108.499 29.9773 109.025 30.1507 109.392 30.4973C109.759 30.8373 109.942 31.344 109.942 32.0173V35.2773H109.262V34.4573C109.102 34.7307 108.865 34.944 108.552 35.0973C108.245 35.2507 107.879 35.3273 107.452 35.3273C106.865 35.3273 106.399 35.1873 106.052 34.9073C105.705 34.6273 105.532 34.2573 105.532 33.7973C105.532 33.3507 105.692 32.9907 106.012 32.7173C106.339 32.444 106.855 32.3073 107.562 32.3073H109.232V31.9873C109.232 31.534 109.105 31.1907 108.852 30.9573C108.599 30.7173 108.229 30.5973 107.742 30.5973C107.409 30.5973 107.089 30.654 106.782 30.7673C106.475 30.874 106.212 31.024 105.992 31.2173L105.672 30.6873C105.939 30.4607 106.259 30.2873 106.632 30.1673C107.005 30.0407 107.399 29.9773 107.812 29.9773ZM107.562 34.7673C107.962 34.7673 108.305 34.6773 108.592 34.4973C108.879 34.3107 109.092 34.044 109.232 33.6973V32.8373H107.582C106.682 32.8373 106.232 33.1507 106.232 33.7773C106.232 34.084 106.349 34.3273 106.582 34.5073C106.815 34.6807 107.142 34.7673 107.562 34.7673Z" fill="#1C1C1C"/>
<path d="M114.449 30.0173H115.159V34.1973L118.669 30.0173H119.299V35.2773H118.589V31.0973L115.089 35.2773H114.449V30.0173Z" fill="#1C1C1C"/>
<path d="M125.861 32.9373H124.661V35.2773H123.951V30.0173H124.661V32.3273H125.871L127.721 30.0173H128.491L126.421 32.5673L128.641 35.2773H127.801L125.861 32.9373Z" fill="#1C1C1C"/>
<path d="M129.762 30.0173H130.472V34.1973L133.982 30.0173H134.612V35.2773H133.902V31.0973L130.402 35.2773H129.762V30.0173Z" fill="#1C1C1C"/>
<path d="M138.847 35.3273C138.327 35.3273 137.86 35.214 137.447 34.9873C137.04 34.7607 136.72 34.444 136.487 34.0373C136.253 33.624 136.137 33.1607 136.137 32.6473C136.137 32.134 136.253 31.674 136.487 31.2673C136.72 30.8607 137.04 30.544 137.447 30.3173C137.86 30.0907 138.327 29.9773 138.847 29.9773C139.3 29.9773 139.703 30.0673 140.057 30.2473C140.417 30.4207 140.7 30.6773 140.907 31.0173L140.377 31.3773C140.203 31.1173 139.983 30.924 139.717 30.7973C139.45 30.664 139.16 30.5973 138.847 30.5973C138.467 30.5973 138.123 30.684 137.817 30.8573C137.517 31.024 137.28 31.264 137.107 31.5773C136.94 31.8907 136.857 32.2473 136.857 32.6473C136.857 33.054 136.94 33.414 137.107 33.7273C137.28 34.034 137.517 34.274 137.817 34.4473C138.123 34.614 138.467 34.6973 138.847 34.6973C139.16 34.6973 139.45 34.634 139.717 34.5073C139.983 34.3807 140.203 34.1873 140.377 33.9273L140.907 34.2873C140.7 34.6273 140.417 34.8873 140.057 35.0673C139.697 35.2407 139.293 35.3273 138.847 35.3273Z" fill="#1C1C1C"/>
<path d="M144.191 32.9373H142.991V35.2773H142.281V30.0173H142.991V32.3273H144.201L146.051 30.0173H146.821L144.751 32.5673L146.971 35.2773H146.131L144.191 32.9373Z" fill="#1C1C1C"/>
<path d="M148.092 30.0173H148.802V34.1973L152.312 30.0173H152.942V35.2773H152.232V31.0973L148.732 35.2773H148.092V30.0173Z" fill="#1C1C1C"/>
<path d="M13.2363 0H18.0352V25.3828H14.0977V11.6367L10.8457 23.6777H10.3359C9.41016 23.6543 8.57812 23.3613 7.83984 22.7988C7.11328 22.2246 6.62109 21.4922 6.36328 20.6016L3.9375 11.6543V25.3828H0V0H4.78125L5.88867 4.04297L9.01758 15.6094L11.9004 4.99219V4.97461L12.2344 3.72656L12.3398 3.35742L13.2363 0Z" fill="#FF4343"/>
<path d="M26.1035 6.13477H32.3789V25.3477H28.4238V20.6191H27.8965C27.3223 20.7246 26.9121 21.0352 26.666 21.5508L26.5957 21.7266L25.0488 25.3477H20.7598L22.9219 20.2852V20.25L23.0625 19.9336L23.2383 19.4941C22.6875 19.1543 22.1777 18.5625 21.709 17.7188C21.252 16.875 21.0234 15.9492 21.0234 14.9414V11.8125C21.0234 10.8984 21.2344 10.0312 21.6562 9.21094C22.2305 8.14453 23.0508 7.33008 24.1172 6.76758C24.5039 6.56836 24.8906 6.41602 25.2773 6.31055C25.6758 6.19336 25.9512 6.13477 26.1035 6.13477ZM28.4238 16.6641V10.0898H26.7012C26.1855 10.0898 25.7695 10.248 25.4531 10.5645C25.1367 10.8809 24.9785 11.2969 24.9785 11.8125V14.9414C24.9785 15.457 25.1367 15.873 25.4531 16.1895C25.7695 16.5059 26.1855 16.6641 26.7012 16.6641H28.4238Z" fill="#FF4343"/>
<path d="M40.3418 21.3574C40.8574 21.3574 41.2676 21.1758 41.5723 20.8125C41.8887 20.4492 42.0469 19.8633 42.0469 19.0547H45.9844C45.9844 20.2617 45.7266 21.334 45.2109 22.2715C44.6953 23.209 44.0039 23.9473 43.1367 24.4863C42.2812 25.0254 41.3496 25.2949 40.3418 25.2949C39.3223 25.2949 38.3848 25.0371 37.5293 24.5215C36.6738 23.9941 35.9824 23.3027 35.4551 22.4473C34.9395 21.5918 34.6816 20.6543 34.6816 19.6348V11.7773C34.6816 10.7695 34.9395 9.83789 35.4551 8.98242C35.9824 8.11523 36.6738 7.42383 37.5293 6.9082C38.3848 6.39258 39.3223 6.13477 40.3418 6.13477C41.3496 6.13477 42.2812 6.4043 43.1367 6.94336C44.0039 7.4707 44.6953 8.20898 45.2109 9.1582C45.7266 10.0957 45.9844 11.168 45.9844 12.375H42.0469C42.0469 11.5664 41.8887 10.9805 41.5723 10.6172C41.2676 10.2539 40.8574 10.0723 40.3418 10.0723C39.8262 10.0723 39.4102 10.2305 39.0938 10.5469C38.7773 10.8516 38.6191 11.2617 38.6191 11.7773V19.6348C38.6191 20.1504 38.7773 20.5664 39.0938 20.8828C39.4102 21.1992 39.8262 21.3574 40.3418 21.3574Z" fill="#FF4343"/>
<path d="M54.457 6.0293C55.4766 6.0293 56.4199 6.29297 57.2871 6.82031C58.1543 7.34766 58.8516 8.04492 59.3789 8.91211C59.9062 9.7793 60.1699 10.7227 60.1699 11.7422V19.6699C60.1699 20.6895 59.9062 21.6328 59.3789 22.5C58.8516 23.3555 58.1543 24.0469 57.2871 24.5742C56.4199 25.1016 55.4766 25.3652 54.457 25.3652C53.4375 25.3652 52.4941 25.1016 51.627 24.5742C50.7715 24.0469 50.0801 23.3555 49.5527 22.5C49.0254 21.6328 48.7617 20.6895 48.7617 19.6699V11.7422C48.7617 10.7227 49.0254 9.7793 49.5527 8.91211C50.0801 8.04492 50.7715 7.34766 51.627 6.82031C52.4941 6.29297 53.4375 6.0293 54.457 6.0293ZM56.1973 19.6699V11.7422C56.1973 11.2148 56.0391 10.793 55.7227 10.4766C55.4062 10.1602 54.9844 10.002 54.457 10.002C53.9414 10.002 53.5254 10.1602 53.209 10.4766C52.8926 10.793 52.7344 11.2148 52.7344 11.7422V19.6699C52.7344 20.1855 52.8926 20.6016 53.209 20.918C53.5254 21.2344 53.9414 21.3926 54.457 21.3926C54.9844 21.3926 55.4062 21.2344 55.7227 20.918C56.0391 20.6016 56.1973 20.1855 56.1973 19.6699Z" fill="#FF4343"/>
<path d="M82.6348 11.7598V12.1641C82.6348 12.9023 82.5879 13.6172 82.4941 14.3086C82.4121 15 82.2012 15.5215 81.8613 15.873C82.1777 16.1777 82.4766 16.6758 82.7578 17.3672C83.0391 18.0469 83.1797 18.7852 83.1797 19.582V19.6523C83.1797 20.7305 82.8926 21.7266 82.3184 22.6406C81.7441 23.543 81 24.2344 80.0859 24.7148C79.2773 25.125 78.416 25.3301 77.502 25.3301H71.8242V6.06445L77.0801 6.08203C77.9707 6.10547 78.791 6.31055 79.541 6.69727C80.4551 7.16602 81.1992 7.85742 81.7734 8.77148C82.3477 9.68555 82.6348 10.6816 82.6348 11.7598ZM79.2246 19.6523V19.582C79.2246 19.0664 79.0723 18.6562 78.7676 18.3516C78.4746 18.0352 78.0703 17.8711 77.5547 17.8594H75.7969V21.375H77.502C78.0176 21.375 78.4336 21.2168 78.75 20.9004C79.0664 20.584 79.2246 20.168 79.2246 19.6523ZM78.6797 12.1641V11.7598C78.6797 11.2559 78.5273 10.8516 78.2227 10.5469C77.9297 10.2305 77.5312 10.0605 77.0273 10.0371H75.7969V13.8867H77.5547C77.9883 13.875 78.2812 13.7285 78.4336 13.4473C78.5977 13.166 78.6797 12.7383 78.6797 12.1641Z" fill="#FF4343"/>
<path d="M109.143 6.13477V25.3301H105.188V18.8613L103.922 23.4492L103.834 23.9238C102.639 23.9238 101.619 23.625 100.775 23.0273C99.9434 22.4297 99.3926 21.6621 99.123 20.7246L98.6133 18.8789V25.3301H94.6582V6.13477H98.4551L101.9 16.998L105.346 6.13477H109.143Z" fill="#FF4343"/>
<path d="M122.871 25.3828H118.934V16.3125L116.402 22.377C116.039 23.2324 115.43 23.9297 114.574 24.4688C113.719 24.9961 112.682 25.2598 111.463 25.2598V6.13477H115.383V15.1875L117.932 9.14062C118.295 8.27344 118.904 7.57617 119.76 7.04883C120.615 6.50977 121.652 6.24023 122.871 6.24023V25.3828Z" fill="#FF4343"/>
<path d="M132.486 21.3574C133.002 21.3574 133.412 21.1758 133.717 20.8125C134.033 20.4492 134.191 19.8633 134.191 19.0547H138.129C138.129 20.2617 137.871 21.334 137.355 22.2715C136.84 23.209 136.148 23.9473 135.281 24.4863C134.426 25.0254 133.494 25.2949 132.486 25.2949C131.467 25.2949 130.529 25.0371 129.674 24.5215C128.818 23.9941 128.127 23.3027 127.6 22.4473C127.084 21.5918 126.826 20.6543 126.826 19.6348V11.7773C126.826 10.7695 127.084 9.83789 127.6 8.98242C128.127 8.11523 128.818 7.42383 129.674 6.9082C130.529 6.39258 131.467 6.13477 132.486 6.13477C133.494 6.13477 134.426 6.4043 135.281 6.94336C136.148 7.4707 136.84 8.20898 137.355 9.1582C137.871 10.0957 138.129 11.168 138.129 12.375H134.191C134.191 11.5664 134.033 10.9805 133.717 10.6172C133.412 10.2539 133.002 10.0723 132.486 10.0723C131.971 10.0723 131.555 10.2305 131.238 10.5469C130.922 10.8516 130.764 11.2617 130.764 11.7773V19.6348C130.764 20.1504 130.922 20.5664 131.238 20.8828C131.555 21.1992 131.971 21.3574 132.486 21.3574Z" fill="#FF4343"/>
<path d="M149.695 17.5254L149.713 17.5605L153.035 25.3477H148.729L146.303 19.6875L145.951 18.8262C145.705 18.2988 145.289 17.9883 144.703 17.8945L144.844 25.3477H140.889V6.13477H144.844L144.703 13.9219C144.703 13.9219 144.867 13.834 145.195 13.6582C145.535 13.4824 145.781 13.2598 145.934 12.9902L146.021 12.7969L148.869 6.13477H153.176L149.713 14.2383L149.572 14.5723L149.555 14.6074C149.426 14.877 149.262 15.1641 149.062 15.4688C148.875 15.7617 148.781 15.9082 148.781 15.9082C148.781 15.9082 148.875 16.0605 149.062 16.3652C149.262 16.6582 149.426 16.9395 149.555 17.209L149.695 17.5254Z" fill="#FF4343"/>
<path fill-rule="evenodd" clip-rule="evenodd" d="M161.018 1.54752C160.808 2.96752 161.128 5.24752 162.058 6.35752C162.918 7.38752 163.138 8.65752 162.238 9.64752C161.958 9.95752 161.688 10.2675 161.418 10.5875C161.238 10.5875 161.028 10.6175 160.788 10.6675C158.708 11.1175 156.058 8.06752 155.288 7.46752C152.148 5.02077 153.605 6.77734 151.105 6.27734C148.573 6.44734 149.938 7.37752 152.148 7.02752C154.105 7.02752 157.788 11.5475 158.888 12.8075C159.268 12.6775 159.608 12.6275 159.918 12.6275C156.038 18.6475 157.368 24.8875 165.878 24.2375C166.538 24.1875 169.868 48.9873 158.888 40.2773C152.148 34.9273 152.768 41.3473 157.418 44.0273C169.798 51.1573 169.058 25.3475 167.858 22.7275C167.428 21.7875 168.698 19.9675 165.678 16.4175C162.538 12.7275 165.538 9.02752 167.398 6.34752C169.288 3.61752 168.768 1.50752 168.078 1.27752C168.028 1.25752 166.398 2.93752 164.768 2.92752C162.918 2.91752 161.048 1.22752 160.998 1.54752H161.018Z" fill="#FF4343"/>
<path fill-rule="evenodd" clip-rule="evenodd" d="M163.817 4.02897C164.207 4.72897 163.947 5.60897 163.247 5.98897C162.557 6.36897 161.677 6.11897 161.287 5.41897C160.897 4.71897 161.157 3.83897 161.847 3.45897C162.547 3.06897 163.427 3.32897 163.817 4.02897Z" fill="white"/>
<path fill-rule="evenodd" clip-rule="evenodd" d="M162.047 4.83897C162.047 5.05897 161.867 5.22897 161.657 5.22897C161.447 5.22897 161.267 5.04897 161.267 4.83897C161.267 4.62897 161.447 4.44897 161.657 4.44897C161.867 4.44897 162.047 4.62897 162.047 4.83897Z" fill="#1C1C1C"/>
<path fill-rule="evenodd" clip-rule="evenodd" d="M166.727 4.12897C167.117 4.82897 166.857 5.70897 166.157 6.08897C165.467 6.46897 164.587 6.21897 164.197 5.52897C163.807 4.82897 164.067 3.94897 164.757 3.56897C165.457 3.17897 166.337 3.43897 166.727 4.13897V4.12897Z" fill="white"/>
<path fill-rule="evenodd" clip-rule="evenodd" d="M165.027 4.89897C165.027 5.11897 164.847 5.28897 164.637 5.28897C164.427 5.28897 164.247 5.10897 164.247 4.89897C164.247 4.68897 164.427 4.50897 164.637 4.50897C164.847 4.50897 165.027 4.68897 165.027 4.89897Z" fill="#1C1C1C"/>
</svg>
