<svg width="169" height="46" viewBox="0 0 169 46" fill="none" xmlns="http://www.w3.org/2000/svg">
<path d="M13.2363 0.414062H18.0352V25.7969H14.0977V12.0508L10.8457 24.0918H10.3359C9.41016 24.0684 8.57812 23.7754 7.83984 23.2129C7.11328 22.6387 6.62109 21.9062 6.36328 21.0156L3.9375 12.0684V25.7969H0V0.414062H4.78125L5.88867 4.45703L9.01758 16.0234L11.9004 5.40625V5.38867L12.2344 4.14062L12.3398 3.77148L13.2363 0.414062Z" fill="white"/>
<path d="M26.1035 6.54883H32.3789V25.7617H28.4238V21.0332H27.8965C27.3223 21.1387 26.9121 21.4492 26.666 21.9648L26.5957 22.1406L25.0488 25.7617H20.7598L22.9219 20.6992V20.6641L23.0625 20.3477L23.2383 19.9082C22.6875 19.5684 22.1777 18.9766 21.709 18.1328C21.252 17.2891 21.0234 16.3633 21.0234 15.3555V12.2266C21.0234 11.3125 21.2344 10.4453 21.6562 9.625C22.2305 8.55859 23.0508 7.74414 24.1172 7.18164C24.5039 6.98242 24.8906 6.83008 25.2773 6.72461C25.6758 6.60742 25.9512 6.54883 26.1035 6.54883ZM28.4238 17.0781V10.5039H26.7012C26.1855 10.5039 25.7695 10.6621 25.4531 10.9785C25.1367 11.2949 24.9785 11.7109 24.9785 12.2266V15.3555C24.9785 15.8711 25.1367 16.2871 25.4531 16.6035C25.7695 16.9199 26.1855 17.0781 26.7012 17.0781H28.4238Z" fill="white"/>
<path d="M40.3418 21.7715C40.8574 21.7715 41.2676 21.5898 41.5723 21.2266C41.8887 20.8633 42.0469 20.2773 42.0469 19.4688H45.9844C45.9844 20.6758 45.7266 21.748 45.2109 22.6855C44.6953 23.623 44.0039 24.3613 43.1367 24.9004C42.2812 25.4395 41.3496 25.709 40.3418 25.709C39.3223 25.709 38.3848 25.4512 37.5293 24.9355C36.6738 24.4082 35.9824 23.7168 35.4551 22.8613C34.9395 22.0059 34.6816 21.0684 34.6816 20.0488V12.1914C34.6816 11.1836 34.9395 10.252 35.4551 9.39648C35.9824 8.5293 36.6738 7.83789 37.5293 7.32227C38.3848 6.80664 39.3223 6.54883 40.3418 6.54883C41.3496 6.54883 42.2812 6.81836 43.1367 7.35742C44.0039 7.88477 44.6953 8.62305 45.2109 9.57227C45.7266 10.5098 45.9844 11.582 45.9844 12.7891H42.0469C42.0469 11.9805 41.8887 11.3945 41.5723 11.0312C41.2676 10.668 40.8574 10.4863 40.3418 10.4863C39.8262 10.4863 39.4102 10.6445 39.0938 10.9609C38.7773 11.2656 38.6191 11.6758 38.6191 12.1914V20.0488C38.6191 20.5645 38.7773 20.9805 39.0938 21.2969C39.4102 21.6133 39.8262 21.7715 40.3418 21.7715Z" fill="white"/>
<path d="M54.457 6.44336C55.4766 6.44336 56.4199 6.70703 57.2871 7.23438C58.1543 7.76172 58.8516 8.45898 59.3789 9.32617C59.9062 10.1934 60.1699 11.1367 60.1699 12.1562V20.084C60.1699 21.1035 59.9062 22.0469 59.3789 22.9141C58.8516 23.7695 58.1543 24.4609 57.2871 24.9883C56.4199 25.5156 55.4766 25.7793 54.457 25.7793C53.4375 25.7793 52.4941 25.5156 51.627 24.9883C50.7715 24.4609 50.0801 23.7695 49.5527 22.9141C49.0254 22.0469 48.7617 21.1035 48.7617 20.084V12.1562C48.7617 11.1367 49.0254 10.1934 49.5527 9.32617C50.0801 8.45898 50.7715 7.76172 51.627 7.23438C52.4941 6.70703 53.4375 6.44336 54.457 6.44336ZM56.1973 20.084V12.1562C56.1973 11.6289 56.0391 11.207 55.7227 10.8906C55.4062 10.5742 54.9844 10.416 54.457 10.416C53.9414 10.416 53.5254 10.5742 53.209 10.8906C52.8926 11.207 52.7344 11.6289 52.7344 12.1562V20.084C52.7344 20.5996 52.8926 21.0156 53.209 21.332C53.5254 21.6484 53.9414 21.8066 54.457 21.8066C54.9844 21.8066 55.4062 21.6484 55.7227 21.332C56.0391 21.0156 56.1973 20.5996 56.1973 20.084Z" fill="white"/>
<path d="M82.6348 12.1738V12.5781C82.6348 13.3164 82.5879 14.0312 82.4941 14.7227C82.4121 15.4141 82.2012 15.9355 81.8613 16.2871C82.1777 16.5918 82.4766 17.0898 82.7578 17.7812C83.0391 18.4609 83.1797 19.1992 83.1797 19.9961V20.0664C83.1797 21.1445 82.8926 22.1406 82.3184 23.0547C81.7441 23.957 81 24.6484 80.0859 25.1289C79.2773 25.5391 78.416 25.7441 77.502 25.7441H71.8242V6.47852L77.0801 6.49609C77.9707 6.51953 78.791 6.72461 79.541 7.11133C80.4551 7.58008 81.1992 8.27148 81.7734 9.18555C82.3477 10.0996 82.6348 11.0957 82.6348 12.1738ZM79.2246 20.0664V19.9961C79.2246 19.4805 79.0723 19.0703 78.7676 18.7656C78.4746 18.4492 78.0703 18.2852 77.5547 18.2734H75.7969V21.7891H77.502C78.0176 21.7891 78.4336 21.6309 78.75 21.3145C79.0664 20.998 79.2246 20.582 79.2246 20.0664ZM78.6797 12.5781V12.1738C78.6797 11.6699 78.5273 11.2656 78.2227 10.9609C77.9297 10.6445 77.5312 10.4746 77.0273 10.4512H75.7969V14.3008H77.5547C77.9883 14.2891 78.2812 14.1426 78.4336 13.8613C78.5977 13.5801 78.6797 13.1523 78.6797 12.5781Z" fill="white"/>
<path d="M109.143 6.54883V25.7441H105.188V19.2754L103.922 23.8633L103.834 24.3379C102.639 24.3379 101.619 24.0391 100.775 23.4414C99.9434 22.8438 99.3926 22.0762 99.123 21.1387L98.6133 19.293V25.7441H94.6582V6.54883H98.4551L101.9 17.4121L105.346 6.54883H109.143Z" fill="white"/>
<path d="M122.871 25.7969H118.934V16.7266L116.402 22.791C116.039 23.6465 115.43 24.3438 114.574 24.8828C113.719 25.4102 112.682 25.6738 111.463 25.6738V6.54883H115.383V15.6016L117.932 9.55469C118.295 8.6875 118.904 7.99023 119.76 7.46289C120.615 6.92383 121.652 6.6543 122.871 6.6543V25.7969Z" fill="white"/>
<path d="M132.486 21.7715C133.002 21.7715 133.412 21.5898 133.717 21.2266C134.033 20.8633 134.191 20.2773 134.191 19.4688H138.129C138.129 20.6758 137.871 21.748 137.355 22.6855C136.84 23.623 136.148 24.3613 135.281 24.9004C134.426 25.4395 133.494 25.709 132.486 25.709C131.467 25.709 130.529 25.4512 129.674 24.9355C128.818 24.4082 128.127 23.7168 127.6 22.8613C127.084 22.0059 126.826 21.0684 126.826 20.0488V12.1914C126.826 11.1836 127.084 10.252 127.6 9.39648C128.127 8.5293 128.818 7.83789 129.674 7.32227C130.529 6.80664 131.467 6.54883 132.486 6.54883C133.494 6.54883 134.426 6.81836 135.281 7.35742C136.148 7.88477 136.84 8.62305 137.355 9.57227C137.871 10.5098 138.129 11.582 138.129 12.7891H134.191C134.191 11.9805 134.033 11.3945 133.717 11.0312C133.412 10.668 133.002 10.4863 132.486 10.4863C131.971 10.4863 131.555 10.6445 131.238 10.9609C130.922 11.2656 130.764 11.6758 130.764 12.1914V20.0488C130.764 20.5645 130.922 20.9805 131.238 21.2969C131.555 21.6133 131.971 21.7715 132.486 21.7715Z" fill="white"/>
<path d="M149.695 17.9395L149.713 17.9746L153.035 25.7617H148.729L146.303 20.1016L145.951 19.2402C145.705 18.7129 145.289 18.4023 144.703 18.3086L144.844 25.7617H140.889V6.54883H144.844L144.703 14.3359C144.703 14.3359 144.867 14.248 145.195 14.0723C145.535 13.8965 145.781 13.6738 145.934 13.4043L146.021 13.2109L148.869 6.54883H153.176L149.713 14.6523L149.572 14.9863L149.555 15.0215C149.426 15.291 149.262 15.5781 149.062 15.8828C148.875 16.1758 148.781 16.3223 148.781 16.3223C148.781 16.3223 148.875 16.4746 149.062 16.7793C149.262 17.0723 149.426 17.3535 149.555 17.623L149.695 17.9395Z" fill="white"/>
<path fill-rule="evenodd" clip-rule="evenodd" d="M161.018 1.96158C160.808 3.38158 161.128 5.66158 162.058 6.77158C162.918 7.80158 163.138 9.07158 162.238 10.0616C161.958 10.3716 161.688 10.6816 161.418 11.0016C161.238 11.0016 161.028 11.0316 160.788 11.0816C158.708 11.5316 156.058 8.48158 155.288 7.88158C152.148 5.43483 153.605 7.19141 151.105 6.69141C148.573 6.86141 149.938 7.79158 152.148 7.44158C154.105 7.44158 157.788 11.9616 158.888 13.2216C159.268 13.0916 159.608 13.0416 159.918 13.0416C156.038 19.0616 157.368 25.3016 165.878 24.6516C166.538 24.6016 169.868 49.4014 158.888 40.6914C152.148 35.3414 152.768 41.7614 157.418 44.4414C169.798 51.5714 169.058 25.7616 167.858 23.1416C167.428 22.2016 168.698 20.3816 165.678 16.8316C162.538 13.1416 165.538 9.44158 167.398 6.76158C169.288 4.03158 168.768 1.92158 168.078 1.69158C168.028 1.67158 166.398 3.35158 164.768 3.34158C162.918 3.33158 161.048 1.64158 160.998 1.96158H161.018Z" fill="white"/>
<path fill-rule="evenodd" clip-rule="evenodd" d="M163.817 4.44303C164.207 5.14303 163.947 6.02303 163.247 6.40303C162.557 6.78303 161.677 6.53303 161.287 5.83303C160.897 5.13303 161.157 4.25303 161.847 3.87303C162.547 3.48303 163.427 3.74303 163.817 4.44303Z" fill="#1C1C1C"/>
<path fill-rule="evenodd" clip-rule="evenodd" d="M162.047 5.25304C162.047 5.47304 161.867 5.64304 161.657 5.64304C161.447 5.64304 161.267 5.46304 161.267 5.25304C161.267 5.04304 161.447 4.86304 161.657 4.86304C161.867 4.86304 162.047 5.04304 162.047 5.25304Z" fill="white"/>
<path fill-rule="evenodd" clip-rule="evenodd" d="M166.727 4.54314C167.117 5.24314 166.857 6.12314 166.157 6.50314C165.467 6.88314 164.587 6.63314 164.197 5.94314C163.807 5.24314 164.067 4.36314 164.757 3.98314C165.457 3.59314 166.337 3.85314 166.727 4.55314V4.54314Z" fill="#1C1C1C"/>
<path fill-rule="evenodd" clip-rule="evenodd" d="M165.027 5.3131C165.027 5.5331 164.847 5.7031 164.637 5.7031C164.427 5.7031 164.247 5.5231 164.247 5.3131C164.247 5.1031 164.427 4.9231 164.637 4.9231C164.847 4.9231 165.027 5.1031 165.027 5.3131Z" fill="white"/>
</svg>
