<svg width="37" height="37" viewBox="0 0 37 37" fill="none" xmlns="http://www.w3.org/2000/svg">
<rect x="0.299683" y="0.568726" width="36" height="36" rx="18" fill="#95C8FF"/>
<path d="M25.0043 19.3147C24.9763 16.2867 27.5471 14.8136 27.6647 14.745C26.2087 12.6754 23.952 12.3926 23.159 12.37C21.2637 12.1756 19.4252 13.4758 18.4597 13.4758C17.4749 13.4758 15.9881 12.3888 14.3857 12.4208C12.3237 12.4518 10.3946 13.6158 9.33658 15.4234C7.15312 19.1089 8.78156 24.5251 10.8735 27.5042C11.9199 28.9632 13.1427 30.5922 14.7432 30.5349C16.309 30.472 16.8939 29.5616 18.7834 29.5616C20.6557 29.5616 21.2049 30.5349 22.8372 30.4983C24.5177 30.472 25.5757 29.0327 26.5855 27.5605C27.7948 25.8883 28.2804 24.2413 28.2997 24.1568C28.2602 24.1436 25.0361 22.9439 25.0043 19.3147Z" fill="white"/>
<path d="M21.9208 10.4103C22.763 9.38342 23.3392 7.98641 23.1793 6.56873C21.9603 6.62134 20.436 7.39077 19.5582 8.39508C18.7815 9.28007 18.0877 10.7306 18.267 12.0948C19.6362 12.1944 21.0421 11.4212 21.9208 10.4103Z" fill="white"/>
</svg>
