<svg width="67" height="34" viewBox="0 0 67 34" fill="none" xmlns="http://www.w3.org/2000/svg">
<path fill-rule="evenodd" clip-rule="evenodd" d="M35.1649 8.54941C30.7288 16.5116 33.6861 26.5212 41.6483 30.8435C49.4967 35.1658 59.5064 32.3222 63.9424 24.36C68.3785 16.3978 65.4211 6.38825 57.5727 2.06592C49.6105 -2.37014 39.601 0.587235 35.1649 8.54941Z" fill="white"/>
<path fill-rule="evenodd" clip-rule="evenodd" d="M55.2981 17.7634C55.2981 20.2658 57.3457 22.1995 59.7344 22.1995C62.123 22.1995 64.1704 20.1521 64.1704 17.7634C64.1704 15.3748 62.123 13.3273 59.7344 13.3273C57.3457 13.3273 55.2981 15.3748 55.2981 17.7634Z" fill="#1C1C1C"/>
<path fill-rule="evenodd" clip-rule="evenodd" d="M2.06594 9.687C-2.37012 17.6492 0.587337 27.6588 8.54951 31.9811C16.3979 36.3034 26.4074 33.4598 30.8435 25.6113C35.2796 17.6492 32.3222 7.63959 24.4738 3.31727C16.5116 -1.1188 6.50201 1.83858 2.06594 9.80075V9.687Z" fill="white"/>
<path fill-rule="evenodd" clip-rule="evenodd" d="M21.4029 18.4463C21.4029 20.9487 23.4503 22.8824 25.839 22.8824C28.2276 22.8824 30.275 20.835 30.275 18.4463C30.275 16.0577 28.2276 14.0103 25.839 14.0103C23.4503 14.0103 21.4029 16.0577 21.4029 18.4463Z" fill="#1C1C1C"/>
</svg>
